<svg width="35" height="36" viewBox="0 0 35 36" fill="none" xmlns="http://www.w3.org/2000/svg">
<path d="M6.00244 18.451V5.54638L19.6943 1.81177L33.0472 5.32442C33.0472 5.32442 33.3913 15.9613 33.0472 17.9985C32.7031 20.0357 31.6896 29.5413 19.8079 33.3878L16.2995 32.0302" stroke="#79B51F" stroke-width="2" stroke-linecap="round" stroke-linejoin="round"/>
<path d="M15.3179 14.8515L19.6473 21.0633L26.4238 10.1456" stroke="#79B51F" stroke-width="2" stroke-linecap="round" stroke-linejoin="round"/>
<path d="M8.37856 29.2471C9.62627 29.2471 10.6377 28.2356 10.6377 26.9879C10.6377 25.7402 9.62627 24.7288 8.37856 24.7288C7.13085 24.7288 6.11938 25.7402 6.11938 26.9879C6.11938 28.2356 7.13085 29.2471 8.37856 29.2471Z" stroke="#79B51F" stroke-width="2" stroke-linecap="round" stroke-linejoin="round"/>
<path d="M8.37854 19.9213V24.4482" stroke="#79B51F" stroke-width="2" stroke-linecap="round" stroke-linejoin="round"/>
<path d="M8.37854 29.5404V34.0665" stroke="#79B51F" stroke-width="2" stroke-linecap="round" stroke-linejoin="round"/>
<path d="M15.4515 26.9939H10.9246" stroke="#79B51F" stroke-width="2" stroke-linecap="round" stroke-linejoin="round"/>
<path d="M5.83225 26.9939H1.30615" stroke="#79B51F" stroke-width="2" stroke-linecap="round" stroke-linejoin="round"/>
<path d="M3.39587 32.0131L6.58505 28.8015" stroke="#79B51F" stroke-width="2" stroke-linecap="round" stroke-linejoin="round"/>
<path d="M10.1724 25.1873L13.3615 21.9749" stroke="#79B51F" stroke-width="2" stroke-linecap="round" stroke-linejoin="round"/>
<path d="M13.3615 32.0131L10.1724 28.8015" stroke="#79B51F" stroke-width="2" stroke-linecap="round" stroke-linejoin="round"/>
<path d="M6.58505 25.1873L3.39587 21.9749" stroke="#79B51F" stroke-width="2" stroke-linecap="round" stroke-linejoin="round"/>
</svg>
