<svg width="36" height="42" viewBox="0 0 36 42" fill="none" xmlns="http://www.w3.org/2000/svg">
<path d="M24.6874 9.64905H10.9904C8.02995 9.64905 5.38376 12.0124 4.83646 15.0331L2.08684 31.3043C1.54084 34.1979 4.51043 36.6883 7.47086 36.6883H28.5762C31.5379 36.6883 34.2967 34.2464 33.9602 31.3043L31.0796 15.0331C30.6894 12.0622 27.6531 9.64905 24.6874 9.64905Z" stroke="#79B51F" stroke-width="1.97199" stroke-miterlimit="10"/>
<path d="M18.0013 9.64187C20.2025 9.64187 21.9869 7.85744 21.9869 5.65623C21.9869 3.45502 20.2025 1.67059 18.0013 1.67059C15.8001 1.67059 14.0156 3.45502 14.0156 5.65623C14.0156 7.85744 15.8001 9.64187 18.0013 9.64187Z" stroke="#79B51F" stroke-width="1.97199" stroke-miterlimit="10"/>
<path d="M12.1309 19.8632V27.1654" stroke="#79B51F" stroke-width="1.97199" stroke-linecap="round" stroke-linejoin="round"/>
<path d="M16.4523 19.837L12.8359 23.4548" stroke="#79B51F" stroke-width="1.97199" stroke-linecap="round" stroke-linejoin="round"/>
<path d="M16.4504 27.0895L12.834 23.4731" stroke="#79B51F" stroke-width="1.97199" stroke-linecap="round" stroke-linejoin="round"/>
<path d="M23.4724 20.8361C23.2601 20.521 22.9737 20.2627 22.6384 20.084C22.303 19.9053 21.929 19.8115 21.549 19.8109H21.1366C20.5217 19.8126 19.9326 20.0576 19.4979 20.4923C19.0631 20.9271 18.8181 21.5162 18.8164 22.131V25.0718C18.8181 25.6866 19.0631 26.2757 19.4979 26.7105C19.9326 27.1452 20.5217 27.3902 21.1366 27.3919H21.5438C22.1586 27.3902 22.7477 27.1452 23.1825 26.7105C23.6172 26.2757 23.8622 25.6866 23.8639 25.0718V23.8109H21.8292" stroke="#79B51F" stroke-width="2.04851" stroke-linecap="round" stroke-linejoin="round"/>
</svg>
