<svg width="45" height="45" viewBox="0 0 45 45" fill="none" xmlns="http://www.w3.org/2000/svg">
<path d="M39.5551 24.4531C39.4973 27.3834 38.6623 30.2457 37.1352 32.7473C35.6082 35.2489 33.444 37.3 30.864 38.6909C28.9503 39.7228 26.852 40.3676 24.689 40.5886C22.526 40.8096 20.3406 40.6023 18.2577 39.9787C16.1748 39.355 14.2352 38.3272 12.5496 36.9539C10.864 35.5806 9.46546 33.8887 8.43384 31.9749C8.18668 31.5209 7.96638 31.0589 7.76758 30.5942" stroke="#79B51F" stroke-width="2" stroke-linecap="round" stroke-linejoin="round"/>
<path d="M6.45581 20.7702C6.33576 17.677 7.08583 14.6121 8.62074 11.9238C10.1557 9.23558 12.4139 7.03171 15.1388 5.56266C17.0525 4.53038 19.1508 3.88523 21.3139 3.66409C23.477 3.44294 25.6625 3.65012 27.7455 4.2738C29.8284 4.89747 31.7681 5.92542 33.4537 7.29891C35.1393 8.6724 36.5377 10.3645 37.569 12.2786C38.1025 13.2638 38.5346 14.3007 38.8586 15.3733" stroke="#79B51F" stroke-width="2" stroke-linecap="round" stroke-linejoin="round"/>
<path d="M42.7925 10.8353L39.7539 16.9872" stroke="#79B51F" stroke-width="2" stroke-linecap="round" stroke-linejoin="round"/>
<path d="M3.83246 34.9525L6.87109 28.8006" stroke="#79B51F" stroke-width="2" stroke-linecap="round" stroke-linejoin="round"/>
<path d="M33.2281 14.6035L39.6621 16.9874" stroke="#79B51F" stroke-width="2" stroke-linecap="round" stroke-linejoin="round"/>
<path d="M13.3989 31.1844L6.96483 28.8005" stroke="#79B51F" stroke-width="2" stroke-linecap="round" stroke-linejoin="round"/>
<path d="M23 15.9179C23.0014 14.5694 23.5381 13.2767 24.4922 12.3237C25.4463 11.3706 26.7398 10.8353 28.0884 10.8353" stroke="#79B51F" stroke-width="2" stroke-linecap="round" stroke-linejoin="round"/>
<path d="M23.0742 15.9904C23.7425 15.9908 24.4043 15.8594 25.0219 15.6039C25.6394 15.3483 26.2005 14.9735 26.673 14.501C27.1456 14.0285 27.5204 13.4674 27.776 12.85C28.0316 12.2325 28.1629 11.5707 28.1626 10.9025" stroke="#79B51F" stroke-width="2" stroke-linecap="round" stroke-linejoin="round"/>
<path d="M22.7039 15.8368C22.6705 14.9428 22.4019 14.0734 21.9251 13.3164C21.4483 12.5595 20.7802 11.9417 19.9883 11.5254" stroke="#79B51F" stroke-width="2" stroke-linecap="round" stroke-linejoin="round"/>
<path d="M22.7957 16.5351C22.7957 16.5351 19.4052 14.2544 16.2754 17.2523C16.2754 17.2523 21.8178 19.6701 19.0802 23.9682C19.0802 23.9682 21.7533 28.8574 16.536 29.4431C16.536 29.4431 17.0572 32.1805 19.0802 32.3766C21.1031 32.5727 20.9044 31.9199 22.9918 31.987" stroke="#79B51F" stroke-width="2" stroke-linecap="round" stroke-linejoin="round"/>
<path d="M23.0653 16.5351C23.0653 16.5351 26.4557 14.2544 29.5856 17.2523C29.5856 17.2523 24.0432 19.6701 26.7808 23.9682C26.7808 23.9682 24.0942 28.8574 29.325 29.4431C29.325 29.4431 28.8038 32.1805 26.7808 32.3766C24.7578 32.5727 24.9566 31.9199 22.8691 31.987" stroke="#79B51F" stroke-width="2" stroke-linecap="round" stroke-linejoin="round"/>
</svg>
