<svg width="40" height="41" viewBox="0 0 40 41" fill="none" xmlns="http://www.w3.org/2000/svg">
<path d="M17.1263 38.0447C16.8409 37.844 16.7524 37.5692 16.7639 37.2191C16.7857 36.5077 16.7639 35.7924 16.7715 35.0829C16.7715 34.9193 16.7715 34.8023 16.5555 34.7519C14.9609 34.3742 13.4387 33.7383 12.0493 32.8696C12.0187 32.8576 11.9867 32.8496 11.9541 32.8458L9.92884 34.8708C9.48268 35.3159 9.24772 35.314 8.7949 34.8622C7.56964 33.6378 6.3447 32.4124 5.12007 31.186C4.69104 30.7571 4.69389 30.5202 5.13149 30.0789C5.81071 29.3998 6.49088 28.7226 7.14441 28.072C6.75058 27.273 6.33391 26.5264 6.00286 25.7417C5.71806 25.0144 5.47228 24.2724 5.26657 23.5189C5.19998 23.2896 5.11341 23.223 4.88605 23.2269C4.1507 23.2411 3.4144 23.2345 2.67906 23.2316C2.1606 23.2316 1.95798 23.0347 1.95703 22.5306C1.95703 20.7152 1.95703 18.8991 1.95703 17.0825C1.95703 16.5993 2.16536 16.3986 2.65813 16.3967C3.41916 16.3967 4.1802 16.4033 4.93647 16.3872C5.03826 16.3872 5.20569 16.2787 5.22757 16.1922C5.63025 14.5653 6.29019 13.0131 7.18247 11.5944C6.61169 11.0237 6.04092 10.4587 5.47014 9.89086C4.56927 8.99108 4.56832 8.99013 5.47965 8.07798L8.75209 4.80509C9.26389 4.29433 9.46556 4.29623 9.98877 4.81936C10.6426 5.47375 11.2949 6.12718 11.9456 6.77967C12.5925 6.44487 13.2013 6.07202 13.8539 5.8057C14.6948 5.46138 15.5662 5.1865 16.4357 4.91352C16.6963 4.83172 16.7867 4.73376 16.7781 4.45602C16.7553 3.75693 16.7696 3.05594 16.7705 2.3559C16.7705 1.75572 16.9494 1.58167 17.562 1.58167H22.8312C23.4295 1.58167 23.6055 1.76238 23.6065 2.37397C23.6065 3.09779 23.5989 3.82161 23.615 4.54543C23.615 4.65196 23.7102 4.83077 23.7939 4.84885C25.3966 5.24386 26.9274 5.88768 28.3306 6.75684C28.3651 6.76909 28.4008 6.7777 28.4371 6.78252C29.0907 6.12433 29.7575 5.45092 30.4272 4.77846C30.9029 4.30289 31.1245 4.30289 31.5859 4.7661C32.8036 5.98166 34.0203 7.19849 35.236 8.41659C35.6869 8.86648 35.6879 9.10617 35.2436 9.5513C34.5663 10.2314 33.888 10.9095 33.2773 11.5211C33.7824 12.6625 34.2752 13.7516 34.7385 14.8501C34.8895 15.2237 35.0026 15.6115 35.0762 16.0077C35.1399 16.3273 35.2798 16.4157 35.6003 16.4014C36.2663 16.372 36.9322 16.4091 37.5981 16.3862C37.9472 16.3748 38.2221 16.4595 38.4238 16.7486V22.874C38.2212 23.1593 37.9481 23.2487 37.5981 23.2373C36.9236 23.2145 36.2463 23.2497 35.5718 23.2221C35.2569 23.2088 35.1513 23.3239 35.0838 23.6121C34.7359 25.0543 34.1666 26.434 33.3962 27.702C33.3306 27.8104 33.2697 27.9198 33.2155 28.014C33.2535 28.0672 33.2649 28.0882 33.2811 28.1091C33.9337 28.7635 34.5869 29.4178 35.2408 30.0722C35.6907 30.5231 35.6936 30.7628 35.2503 31.206C34.0453 32.414 32.8381 33.6213 31.6287 34.828C31.1169 35.3397 30.9162 35.3378 30.392 34.8165L28.4029 32.8134C26.9279 33.7444 25.3063 34.4197 23.6065 34.8108C23.6065 35.6317 23.5922 36.4278 23.6131 37.2172C23.6227 37.5663 23.537 37.8402 23.2507 38.0428L17.1263 38.0447Z" stroke="#79B51F" stroke-width="2" stroke-miterlimit="10"/>
<path d="M20.1763 15.8669C20.6985 15.2858 21.2883 14.9034 22.0085 14.7598C24.2459 14.3137 26.1532 16.1513 25.8612 18.4417C25.6481 20.1147 24.8604 21.5119 23.8378 22.8007C22.9232 23.9396 21.8703 24.9601 20.7033 25.8387C20.2714 26.1678 20.1154 26.1726 19.693 25.8463C17.9607 24.509 16.4339 22.9824 15.3694 21.044C14.8567 20.109 14.5218 19.1132 14.4971 18.0346C14.4647 16.6478 15.2305 15.4541 16.4701 14.9348C17.7096 14.4155 19.0585 14.7075 20.0326 15.6909C20.0735 15.7328 20.1078 15.7823 20.1763 15.8669Z" stroke="#79B51F" stroke-width="2" stroke-miterlimit="10"/>
<path d="M20.1981 8.41846C26.4766 8.42417 31.5821 13.5375 31.5821 19.8122C31.5821 26.0869 26.4452 31.226 20.16 31.206C13.8748 31.186 8.78258 26.065 8.79494 19.7922C8.80731 13.5195 13.9243 8.41181 20.1981 8.41846Z" stroke="#79B51F" stroke-width="2" stroke-miterlimit="10"/>
</svg>
