<svg width="40" height="39" viewBox="0 0 40 39" fill="none" xmlns="http://www.w3.org/2000/svg">
<path d="M20.1886 35.9783C29.5651 35.9783 37.1663 28.3772 37.1663 19.0006C37.1663 9.62412 29.5651 2.02295 20.1886 2.02295C10.8121 2.02295 3.21094 9.62412 3.21094 19.0006C3.21094 28.3772 10.8121 35.9783 20.1886 35.9783Z" stroke="#79B51F" stroke-width="1.80605" stroke-linecap="round" stroke-linejoin="round"/>
<path d="M9.94531 12.2961H19.1812" stroke="#79B51F" stroke-width="1.80605" stroke-linecap="round" stroke-linejoin="round"/>
<path d="M25.3398 12.2961H29.3462" stroke="#79B51F" stroke-width="1.80605" stroke-linecap="round" stroke-linejoin="round"/>
<path d="M17.2715 19.1648H29.6432" stroke="#79B51F" stroke-width="1.80605" stroke-linecap="round" stroke-linejoin="round"/>
<path d="M11.1394 19.1648H9.83594" stroke="#79B51F" stroke-width="1.80605" stroke-linecap="round" stroke-linejoin="round"/>
<path d="M10.293 25.9402H22.3481" stroke="#79B51F" stroke-width="1.80605" stroke-linecap="round" stroke-linejoin="round"/>
<path d="M28.4375 25.9402H29.9988" stroke="#79B51F" stroke-width="1.80605" stroke-linecap="round" stroke-linejoin="round"/>
<path d="M22.242 15.3624C23.9355 15.3624 25.3083 13.9895 25.3083 12.2961C25.3083 10.6027 23.9355 9.22986 22.242 9.22986C20.5486 9.22986 19.1758 10.6027 19.1758 12.2961C19.1758 13.9895 20.5486 15.3624 22.242 15.3624Z" stroke="#79B51F" stroke-width="1.80605" stroke-linecap="round" stroke-linejoin="round"/>
<path d="M14.2225 22.2311C15.9159 22.2311 17.2887 20.8583 17.2887 19.1649C17.2887 17.4714 15.9159 16.0986 14.2225 16.0986C12.5291 16.0986 11.1562 17.4714 11.1562 19.1649C11.1562 20.8583 12.5291 22.2311 14.2225 22.2311Z" stroke="#79B51F" stroke-width="1.80605" stroke-linecap="round" stroke-linejoin="round"/>
<path d="M25.3592 29.0064C27.0527 29.0064 28.4255 27.6336 28.4255 25.9401C28.4255 24.2467 27.0527 22.8739 25.3592 22.8739C23.6658 22.8739 22.293 24.2467 22.293 25.9401C22.293 27.6336 23.6658 29.0064 25.3592 29.0064Z" stroke="#79B51F" stroke-width="1.80605" stroke-linecap="round" stroke-linejoin="round"/>
</svg>
