<svg width="48" height="53" viewBox="0 0 48 53" fill="none" xmlns="http://www.w3.org/2000/svg">
<path d="M28.7385 31.0143C28.2238 31.9526 27.4763 32.7332 26.5726 33.2761C25.6688 33.8191 24.6413 34.1049 23.595 34.1044C22.0283 34.1044 20.5257 33.4633 19.4178 32.322C18.3099 31.1808 17.6875 29.6329 17.6875 28.019C17.6875 27.8294 17.6961 27.6417 17.7124 27.4561" stroke="#79B51F" stroke-width="2" stroke-linecap="round" stroke-linejoin="round"/>
<path d="M19.3281 22.9942C19.8263 21.92 20.5996 21.015 21.5603 20.3821C22.5209 19.7492 23.6303 19.4137 24.7624 19.4138C26.3675 19.4138 27.9069 20.0876 29.0419 21.2868C30.1769 22.4861 30.8145 24.1127 30.8145 25.8087C30.8147 26.2416 30.7736 26.6735 30.6917 27.0977" stroke="#79B51F" stroke-width="2" stroke-linecap="round" stroke-linejoin="round"/>
<path d="M18.7969 24.2827L22.1652 23.6313" stroke="#79B51F" stroke-width="2" stroke-linecap="round" stroke-linejoin="round"/>
<path d="M29.2031 29.7599L25.8348 30.4113" stroke="#79B51F" stroke-width="2" stroke-linecap="round" stroke-linejoin="round"/>
<path d="M18.7395 24.2089L17.7421 20.9263" stroke="#79B51F" stroke-width="2" stroke-linecap="round" stroke-linejoin="round"/>
<path d="M29.2605 29.8336L30.2579 33.1162" stroke="#79B51F" stroke-width="2" stroke-linecap="round" stroke-linejoin="round"/>
<path d="M24 17C27.866 17 31 13.866 31 10C31 6.13401 27.866 3 24 3C20.134 3 17 6.13401 17 10C17 13.866 20.134 17 24 17Z" stroke="#79B51F" stroke-width="2" stroke-linecap="round" stroke-linejoin="round"/>
<path d="M38.5 25C42.0899 25 45 22.0899 45 18.5C45 14.9101 42.0899 12 38.5 12C34.9101 12 32 14.9101 32 18.5C32 22.0899 34.9101 25 38.5 25Z" stroke="#79B51F" stroke-width="2" stroke-linecap="round" stroke-linejoin="round"/>
<path d="M38.5 42C42.0899 42 45 39.0899 45 35.5C45 31.9101 42.0899 29 38.5 29C34.9101 29 32 31.9101 32 35.5C32 39.0899 34.9101 42 38.5 42Z" stroke="#79B51F" stroke-width="2" stroke-linecap="round" stroke-linejoin="round"/>
<path d="M24 51C27.866 51 31 47.866 31 44C31 40.134 27.866 37 24 37C20.134 37 17 40.134 17 44C17 47.866 20.134 51 24 51Z" stroke="#79B51F" stroke-width="2" stroke-linecap="round" stroke-linejoin="round"/>
<path d="M10.5 42C14.0899 42 17 39.0898 17 35.5C17 31.9101 14.0899 29 10.5 29C6.91015 29 4 31.9101 4 35.5C4 39.0898 6.91015 42 10.5 42Z" stroke="#79B51F" stroke-width="2" stroke-linecap="round" stroke-linejoin="round"/>
<path d="M10 25C13.3137 25 16 22.0899 16 18.5C16 14.9101 13.3137 12 10 12C6.68629 12 4 14.9101 4 18.5C4 22.0899 6.68629 25 10 25Z" stroke="#79B51F" stroke-width="2" stroke-linecap="round" stroke-linejoin="round"/>
<path d="M21.5 12.5585L24 6.05847L26.5 12.4537" stroke="#79B51F" stroke-width="2" stroke-linecap="round" stroke-linejoin="round"/>
<path d="M22.5 11.5585H25.5" stroke="#79B51F" stroke-width="2" stroke-linecap="round" stroke-linejoin="round"/>
<path d="M12.5 32.5H8.5V38.5H12.4301" stroke="#79B51F" stroke-width="2" stroke-linecap="round" stroke-linejoin="round"/>
<path d="M8.5 15.5V21.5" stroke="#79B51F" stroke-width="2" stroke-linecap="round" stroke-linejoin="round"/>
<path d="M8.5 35.5H11.5" stroke="#79B51F" stroke-width="2" stroke-linecap="round" stroke-linejoin="round"/>
<path d="M8.5 18.5L12.0456 16.1667" stroke="#79B51F" stroke-width="2" stroke-linecap="round" stroke-linejoin="round"/>
<path d="M8.5 18.2935L12.0456 21.381" stroke="#79B51F" stroke-width="2" stroke-linecap="round" stroke-linejoin="round"/>
<path d="M36 18.5H38.5536C38.9372 18.5 39.3051 18.658 39.5764 18.9393C39.8476 19.2206 40 19.6022 40 20C40 20.3978 39.8476 20.7794 39.5764 21.0607C39.3051 21.342 38.9372 21.5 38.5536 21.5H36V18.5Z" stroke="#79B51F" stroke-width="2" stroke-linecap="round" stroke-linejoin="round"/>
<path d="M36.1176 15.5H38.1725C38.5194 15.5 38.8521 15.658 39.0974 15.9393C39.3427 16.2206 39.4805 16.6022 39.4805 17C39.4805 17.197 39.4466 17.392 39.3809 17.574C39.3152 17.756 39.2188 17.9214 39.0974 18.0607C38.9759 18.1999 38.8317 18.3104 38.673 18.3858C38.5143 18.4612 38.3443 18.5 38.1725 18.5H36.1176C36.0864 18.5 36.0565 18.4858 36.0345 18.4605C36.0124 18.4352 36 18.4009 36 18.3651V15.6349C36 15.5991 36.0124 15.5648 36.0345 15.5395C36.0565 15.5142 36.0864 15.5 36.1176 15.5Z" stroke="#79B51F" stroke-width="2" stroke-linecap="round" stroke-linejoin="round"/>
<path d="M42 19V21" stroke="#79B51F" stroke-width="2" stroke-linecap="round" stroke-linejoin="round"/>
<path d="M40.9971 36.7344C40.9951 37.2017 40.771 37.6495 40.3734 37.9802C39.9759 38.3109 39.4372 38.4977 38.8746 38.5H38.1254C37.5623 38.4984 37.0228 38.3118 36.6247 37.9811C36.2265 37.6503 36.0019 37.2021 36 36.7344V34.2656C36.0019 33.7979 36.2265 33.3497 36.6247 33.0189C37.0228 32.6881 37.5623 32.5016 38.1254 32.5H38.8746C39.4377 32.5016 39.9772 32.6881 40.3753 33.0189C40.7735 33.3497 40.9981 33.7979 41 34.2656" stroke="#79B51F" stroke-width="2" stroke-linecap="round" stroke-linejoin="round"/>
<path d="M22.6191 47.1598H23.8543C24.5869 47.1576 25.289 46.8603 25.807 46.3328C26.3251 45.8052 26.617 45.0903 26.6191 44.3443C26.617 43.5982 26.3251 42.8834 25.807 42.3558C25.289 41.8283 24.5869 41.531 23.8543 41.5288H22.6191V47.1598Z" stroke="#79B51F" stroke-width="2" stroke-linecap="round" stroke-linejoin="round"/>
</svg>
